# xmcd CD database file
#
# Track frame offsets:
#	150
#	17747
#	54602
#	68845
#	80658
#	140930
#	156500
#	168141
#	181410
#	227293
#
# Disc length: 3200 seconds
#
# Revision: 0
# Processed by: cddbd v1.5.2PL0 Copyright (c) Steve Scherf et al.
# Submitted via: CDex 1.50Beta3
#
DISCID=830c7e0a
DTITLE=Charles Mingus - Mysterious Blues [CD1]
DYEAR=1900
DGENRE=Jazz
TTITLE0=(Jubilee) Hallelujah
TTITLE1=All the Things you Are
TTITLE2=Ghost of a Chance
TTITLE3=Move
TTITLE4=Stormy Weather
TTITLE5=Zing! Went the Strings of my Heart
TTITLE6=Lyon's Roar
TTITLE7=Merle's Mood
TTITLE8=Minor Intrusion
TTITLE9=This Subdues my Passion
EXTD=
EXTT0=
EXTT1=
EXTT2=
EXTT3=
EXTT4=
EXTT5=
EXTT6=
EXTT7=
EXTT8=
EXTT9=
PLAYORDER=
